<svg width="30" height="30" viewBox="0 0 30 30" fill="none" xmlns="http://www.w3.org/2000/svg">
<path d="M25.0581 8.07128C25.0581 11.8711 25.0581 15.6714 25.0581 19.4712C25.0463 19.5208 25.0335 19.5699 25.0228 19.6195C24.6936 21.1746 23.307 22.1094 21.9066 22.0941C19.3899 22.0665 16.8727 22.0884 14.3561 22.0823C14.1562 22.0818 14.0116 22.1344 13.8695 22.2796C13.1693 22.9941 12.4522 23.6922 11.753 24.4072C11.4458 24.721 11.1024 24.955 10.6725 25.0562C10.443 25.0562 10.2136 25.0562 9.98407 25.0562C9.90485 25.0332 9.82358 25.0143 9.7459 24.9867C9.07584 24.7486 8.64191 24.2932 8.49063 23.592C8.41345 23.2343 8.4482 22.8683 8.44565 22.5055C8.44309 22.1079 8.44514 22.1079 8.06488 22.0511C6.56223 21.8263 5.45518 20.544 5.45518 19.0251C5.45467 15.513 5.45416 12.0004 5.45518 8.48831C5.45569 6.82528 6.82392 5.45561 8.48552 5.4551C13.0057 5.45459 17.5254 5.45612 22.0451 5.45459C22.6646 5.45459 23.2252 5.63551 23.7328 5.98253C24.4723 6.48798 24.893 7.19939 25.0581 8.07128ZM15.2663 7.01438C14.8329 7.01438 14.3995 7.01438 13.9656 7.01438C12.1997 7.01438 10.4338 7.01183 8.66798 7.0154C7.7439 7.01745 7.15869 7.52903 7.03398 8.4418C7.00996 8.61761 7.01558 8.79751 7.01558 8.97587C7.01456 12.2651 7.01405 15.5544 7.01558 18.8436C7.01609 19.8132 7.54253 20.4264 8.49523 20.4954C9.5941 20.5746 10.0996 21.4016 10.0398 22.2183C10.0163 22.5418 10.0367 22.8683 10.0367 23.1934C10.0367 23.3191 10.0848 23.4172 10.2038 23.4694C10.324 23.5215 10.4282 23.4847 10.5202 23.4024C10.5678 23.36 10.6122 23.314 10.6572 23.269C11.3697 22.5571 12.097 21.859 12.7885 21.1271C13.2158 20.6748 13.7121 20.4893 14.3218 20.4959C15.5837 20.5103 16.8461 20.5 18.1086 20.5C19.3899 20.5 20.6712 20.4954 21.9526 20.5021C22.4294 20.5046 22.822 20.339 23.1363 19.9828C23.4281 19.6522 23.5125 19.2535 23.5125 18.8288C23.5135 16.2469 23.513 13.6655 23.513 11.0835C23.513 10.274 23.5166 9.46446 23.512 8.65492C23.5074 7.85305 23.0607 7.24283 22.3564 7.07315C22.1708 7.02869 21.9802 7.01336 21.7875 7.01336C19.6138 7.01489 17.4401 7.01438 15.2663 7.01438Z" fill="#666666"/>
<path d="M15.2434 12.2937C13.7392 12.2937 12.235 12.2947 10.7309 12.2927C10.3557 12.2922 10.0291 12.0131 9.97597 11.661C9.91311 11.246 10.1334 10.8821 10.5162 10.762C10.5975 10.7365 10.6792 10.735 10.7615 10.735C13.7638 10.7344 16.7655 10.7344 19.7677 10.7355C20.2318 10.7355 20.5563 11.0585 20.5573 11.5103C20.5584 11.9723 20.2333 12.2927 19.7559 12.2932C18.2523 12.2947 16.7481 12.2937 15.2434 12.2937Z" fill="#666666"/>
<path d="M13.3691 15.2488C14.2226 15.2488 15.0767 15.2483 15.9302 15.2488C16.4198 15.2493 16.7648 15.5692 16.7679 16.023C16.7705 16.4779 16.425 16.8075 15.9404 16.8075C14.22 16.8086 12.5002 16.8086 10.7798 16.8075C10.2994 16.807 9.97124 16.4912 9.97022 16.0333C9.9692 15.5636 10.2953 15.2498 10.7885 15.2493C11.6487 15.2483 12.5089 15.2488 13.3691 15.2488Z" fill="#666666"/>
<path d="M18.9964 16.8075C18.8757 16.8075 18.7546 16.8091 18.634 16.8075C18.195 16.8019 17.8576 16.4672 17.8535 16.0358C17.85 15.5953 18.1893 15.2539 18.6381 15.2498C18.8926 15.2472 19.1471 15.2467 19.4017 15.2498C19.8366 15.2549 20.1739 15.5983 20.1729 16.0307C20.1719 16.4626 19.8341 16.8019 19.3976 16.8081C19.2637 16.8096 19.1303 16.8075 18.9964 16.8075Z" fill="#666666"/>
</svg>
