<svg width="30" height="30" viewBox="0 0 30 30" fill="none" xmlns="http://www.w3.org/2000/svg">
<path d="M16.6859 6.20094C16.7484 5.91811 17.0765 5.71647 17.2327 5.651C17.2327 5.58553 17.4046 5.45459 18.092 5.45459C18.7794 5.45459 19.1857 6.86873 19.3028 7.5758C19.2247 8.06028 18.9591 9.41419 18.5217 10.954C18.0842 12.4939 18.5217 13.1931 18.7951 13.3502H23.5603C24.404 13.3502 25.0055 14.2406 25.2008 14.6858C25.2529 15.131 25.2633 16.1392 24.8884 16.6106C24.5134 17.082 24.3029 18.2246 24.2508 18.7352C24.2508 19.0672 24.9196 19.3682 24.2634 20.0281C23.6072 20.688 23.5515 21.1557 23.5906 21.3913C23.5906 22.0554 23.5916 21.5444 23.5603 22.7385C23.5291 23.9327 22.4797 24.4407 21.9589 24.5455C18.9513 24.5062 12.7252 24.4119 11.8815 24.3491C11.0379 24.2862 10.7749 23.4325 10.7488 23.0135L10.9441 13.9394L11.4909 13.3502L12.9361 12.4467L14.5376 10.4826L15.9437 8.12575C16.1651 7.60199 16.6234 6.48377 16.6859 6.20094Z" stroke="#4C4C4C" stroke-width="2"/>
<path d="M4.77271 24.2705L4.88988 13.7037H8.52242V24.3491L4.77271 24.2705Z" stroke="#4C4C4C" stroke-width="2"/>
</svg>
