<svg width="219" height="33" viewBox="0 0 219 33" fill="none" xmlns="http://www.w3.org/2000/svg">
<path d="M13.1426 0.956521C14.68 0.956521 16.1139 1.4 17.4443 2.28696C18.8043 3.17391 19.8983 4.3713 20.7261 5.87913C21.5539 7.38696 21.9678 9.07217 21.9678 10.9348C21.9678 12.7678 21.5539 14.4383 20.7261 15.9461C19.8983 17.4539 18.8043 18.6661 17.4443 19.5826C16.1139 20.4696 14.68 20.913 13.1426 20.913H4.98261L5.42609 20.1148V29.2948C5.42609 30.0635 5.18957 30.7139 4.71652 31.2461C4.24348 31.7487 3.62261 32 2.85391 32C2.11478 32 1.5087 31.7487 1.03565 31.2461C0.562609 30.7139 0.326087 30.0635 0.326087 29.2948V3.66174C0.326087 2.89304 0.577391 2.25739 1.08 1.75478C1.61217 1.22261 2.26261 0.956521 3.0313 0.956521H13.1426ZM13.1426 15.8574C13.7043 15.8574 14.2513 15.6209 14.7835 15.1478C15.3157 14.6748 15.7591 14.0687 16.1139 13.3296C16.4687 12.5609 16.6461 11.7626 16.6461 10.9348C16.6461 10.0774 16.4687 9.27913 16.1139 8.54C15.7591 7.80087 15.3157 7.20957 14.7835 6.76609C14.2513 6.29304 13.7043 6.05652 13.1426 6.05652H4.89391L5.42609 5.25826V16.567L4.93826 15.8574H13.1426ZM49.4874 26.8113C50.2561 26.8113 50.8917 27.0626 51.3943 27.5652C51.9265 28.0383 52.1926 28.6591 52.1926 29.4278C52.1926 30.167 51.9265 30.7878 51.3943 31.2904C50.8917 31.7635 50.2561 32 49.4874 32H35.0743C34.3056 32 33.6552 31.7487 33.123 31.2461C32.6204 30.7139 32.3691 30.0635 32.3691 29.2948V3.66174C32.3691 2.89304 32.6352 2.25739 33.1674 1.75478C33.6996 1.22261 34.3796 0.956521 35.2074 0.956521C35.9169 0.956521 36.5378 1.22261 37.07 1.75478C37.6317 2.25739 37.9126 2.89304 37.9126 3.66174V27.5652L36.9369 26.8113H49.4874ZM73.9906 7.91913L64.4115 30.4478C64.2045 31.0096 63.8793 31.453 63.4358 31.7783C63.0219 32.0739 62.5636 32.2217 62.061 32.2217C61.2628 32.2217 60.6715 32 60.2871 31.5565C59.9028 31.113 59.7106 30.5661 59.7106 29.9157C59.7106 29.6496 59.7549 29.3687 59.8436 29.073L70.8862 2.55304C71.1228 1.96174 71.4776 1.50348 71.9506 1.17826C72.4532 0.853043 72.9854 0.72 73.5471 0.779129C74.0793 0.779129 74.5671 0.941739 75.0106 1.26696C75.4836 1.56261 75.8236 1.9913 76.0306 2.55304L86.9402 28.5409C87.088 28.9252 87.1619 29.28 87.1619 29.6052C87.1619 30.4035 86.8958 31.0391 86.3636 31.5122C85.861 31.9852 85.2993 32.2217 84.6784 32.2217C84.1462 32.2217 83.6584 32.0591 83.2149 31.7339C82.801 31.4087 82.4758 30.9652 82.2393 30.4035L72.7045 8.18522L73.9906 7.91913ZM65.7862 25.0374L68.2254 19.9374H80.1993L81.0419 25.0374H65.7862ZM157.72 0.956521C158.43 0.956521 159.006 1.19304 159.45 1.66609C159.893 2.13913 160.115 2.73043 160.115 3.44V29.2948C160.115 30.0635 159.849 30.7139 159.317 31.2461C158.814 31.7487 158.179 32 157.41 32C157.026 32 156.626 31.9409 156.212 31.8226C155.828 31.6748 155.532 31.4826 155.326 31.2461L137.897 9.11652L139.05 8.40696V29.5165C139.05 30.2261 138.813 30.8174 138.34 31.2904C137.897 31.7635 137.306 32 136.566 32C135.857 32 135.28 31.7635 134.837 31.2904C134.393 30.8174 134.172 30.2261 134.172 29.5165V3.66174C134.172 2.89304 134.423 2.25739 134.926 1.75478C135.458 1.22261 136.108 0.956521 136.877 0.956521C137.291 0.956521 137.719 1.04522 138.163 1.22261C138.606 1.37044 138.932 1.60696 139.139 1.93217L156.035 23.4852L155.281 24.0174V3.44C155.281 2.73043 155.503 2.13913 155.946 1.66609C156.39 1.19304 156.981 0.956521 157.72 0.956521ZM177.648 29.2948C177.648 30.0635 177.367 30.7139 176.805 31.2461C176.244 31.7487 175.593 32 174.854 32C174.026 32 173.361 31.7487 172.859 31.2461C172.356 30.7139 172.105 30.0635 172.105 29.2948V3.66174C172.105 2.89304 172.371 2.25739 172.903 1.75478C173.435 1.22261 174.115 0.956521 174.943 0.956521C175.652 0.956521 176.273 1.22261 176.805 1.75478C177.367 2.25739 177.648 2.89304 177.648 3.66174V29.2948ZM218.199 16.4783C218.199 18.6957 217.83 20.7652 217.091 22.687C216.351 24.6087 215.302 26.3087 213.942 27.787C212.611 29.2357 211.015 30.3739 209.152 31.2017C207.319 32.0296 205.309 32.4435 203.121 32.4435C200.933 32.4435 198.923 32.0296 197.09 31.2017C195.257 30.3739 193.66 29.2357 192.3 27.787C190.97 26.3087 189.935 24.6087 189.196 22.687C188.457 20.7652 188.087 18.6957 188.087 16.4783C188.087 14.2609 188.457 12.1913 189.196 10.2696C189.935 8.34783 190.97 6.66261 192.3 5.21391C193.66 3.73565 195.257 2.58261 197.09 1.75478C198.923 0.926956 200.933 0.513043 203.121 0.513043C205.309 0.513043 207.319 0.926956 209.152 1.75478C211.015 2.58261 212.611 3.73565 213.942 5.21391C215.302 6.66261 216.351 8.34783 217.091 10.2696C217.83 12.1913 218.199 14.2609 218.199 16.4783ZM212.434 16.4783C212.434 14.4974 212.035 12.7087 211.237 11.1122C210.438 9.48609 209.345 8.2 207.955 7.25391C206.565 6.30783 204.954 5.83478 203.121 5.83478C201.288 5.83478 199.677 6.30783 198.287 7.25391C196.898 8.2 195.804 9.4713 195.005 11.0678C194.237 12.6643 193.852 14.4678 193.852 16.4783C193.852 18.4591 194.237 20.2626 195.005 21.8887C195.804 23.4852 196.898 24.7565 198.287 25.7026C199.677 26.6487 201.288 27.1217 203.121 27.1217C204.954 27.1217 206.565 26.6487 207.955 25.7026C209.345 24.7565 210.438 23.4852 211.237 21.8887C212.035 20.2626 212.434 18.4591 212.434 16.4783Z" fill="black"/>
<path d="M119.787 0.956521C120.497 0.956521 121.073 1.19304 121.517 1.66609C121.96 2.13913 122.182 2.73043 122.182 3.44V29.2948C122.182 30.0635 121.916 30.7139 121.384 31.2461C120.881 31.7487 120.246 32 119.477 32C119.093 32 118.693 31.9409 118.28 31.8226C117.895 31.6748 117.6 31.4826 117.393 31.2461L99.9639 9.11652L101.117 8.40696V29.5165C101.117 30.2261 100.88 30.8174 100.407 31.2904C99.9639 31.7635 99.3726 32 98.6334 32C97.9239 32 97.3473 31.7635 96.9039 31.2904C96.4604 30.8174 96.2386 30.2261 96.2386 29.5165V3.66174C96.2386 2.89304 96.49 2.25739 96.9926 1.75478C97.5247 1.22261 98.1752 0.956521 98.9439 0.956521C99.3578 0.956521 99.7865 1.04522 100.23 1.22261C100.673 1.37044 100.999 1.60696 101.206 1.93217L118.102 23.4852L117.348 24.0174V3.44C117.348 2.73043 117.57 2.13913 118.013 1.66609C118.457 1.19304 119.048 0.956521 119.787 0.956521Z" fill="#4B96CC"/>
</svg>
